<?xml version="1.0" standalone="no"?><!DOCTYPE svg PUBLIC "-//W3C//DTD SVG 1.1//EN" "http://www.w3.org/Graphics/SVG/1.1/DTD/svg11.dtd"><svg t="1620884793291" class="icon" viewBox="0 0 1024 1024" version="1.1" xmlns="http://www.w3.org/2000/svg" p-id="1509" xmlns:xlink="http://www.w3.org/1999/xlink" width="32" height="32"><defs><style type="text/css"></style></defs><path d="M417.587684 192.024537c-18.199463-1.399959-33.599009 13.999587-33.599009 32.399044v31.999057c0 17.199493 13.599599 30.599098 30.799092 31.599068 170.594969 11.799652 306.390964 150.595559 320.790539 321.390521 1.399959 16.999499 14.599569 30.399103 31.599068 30.399104h32.399045c18.199463 0 33.599009-15.399546 32.399044-33.59901-16.59951-220.793488-193.394296-397.788268-414.387779-414.187784z m-0.199994-191.994338C399.188227-0.769777 383.988675 14.429774 383.988675 32.629238v31.999056c0 17.199493 13.599599 30.599098 30.799092 31.599068C691.179616 111.626908 914.373033 332.820384 927.972632 609.012239c0.799976 17.199493 14.399575 30.999086 31.599068 30.999086h31.999056c18.199463 0 33.399015-15.199552 32.599039-33.399015C1006.970302 279.821947 744.178053 17.029698 417.38769 0.030199zM273.991919 448.016987h-17.999469c-17.599481 0-31.999056 14.399575-31.999056 31.999056v63.998113c0 17.599481 14.399575 31.999056 31.999056 31.999056h21.799357c93.997228 0 175.99481 76.797735 169.794993 170.594969-5.199847 79.797647-69.197959 143.595765-148.795612 148.995606C204.79396 902.003598 127.996225 820.006016 127.996225 725.808794V224.023593c0-17.599481-14.399575-31.999056-31.999056-31.999056H31.999056c-17.599481 0-31.999056 14.399575-31.999056 31.999056v497.985313c0 165.195128 132.996078 307.390934 297.991212 301.7911 150.795553-5.199847 272.591961-126.996255 277.791807-277.791807 5.799829-164.995134-136.595971-297.991212-301.7911-297.991212z" p-id="1510" fill="#f27f30"></path></svg>