<?xml version="1.0" standalone="no"?><!DOCTYPE svg PUBLIC "-//W3C//DTD SVG 1.1//EN" "http://www.w3.org/Graphics/SVG/1.1/DTD/svg11.dtd">
<svg t="1612922743299" class="icon" viewBox="0 0 1024 1024" version="1.1"
    xmlns="http://www.w3.org/2000/svg" p-id="1453" width="512" height="512"
    xmlns:xlink="http://www.w3.org/1999/xlink">
    <defs>
        <style type="text/css"></style>
    </defs>
    <path d="M661.6 351.4c-40.6 0-85.2-5.5-131.2-18-55.4-15-112.1-39.3-164.2-69-0.8-0.3-1.5-0.8-2.1-1.2-81.1-46.5-150.8-105.9-186.1-163-4.3-7-2.2-16.2 4.8-20.5 7-4.4 16.2-2.2 20.5 4.8 30.7 49.7 89.6 101.3 159.3 143.6 7.2-30.3 21.5-90.4 32-138.9 1.2-5.3 5.1-9.6 10.3-11.1 68.4-20.3 141.9-16.9 238.5 10.8C778.1 127.5 861.7 219.1 846.6 275c-12 44-86.5 76.4-185 76.4z m-272-107.8c47.4 26 98.5 47.4 148.6 61 143.2 38.8 268.3 4.1 279.6-37.4 8.4-31-56.2-113.4-182.6-149.7-86.7-24.9-153-29.1-213.3-13.2-11.5 52.3-26.4 114.6-32.3 139.3z" fill="#d81e06" p-id="1454"></path>
    <path d="M278.7 929c-1.5 0-3-0.2-4.5-0.7-5.6-1.8-9.7-6.7-10.4-12.6-0.3-3-33.4-302.9-88.1-821.9-0.9-8.2 5.1-15.5 13.3-16.4 8.2-0.8 15.5 5.1 16.4 13.3 44.2 419.6 74.3 696 84.4 788 211.6-241.8 510.3-584.6 522.1-601.6 4-7.2 12.8-9.5 20-5.5 7.2 3.9 9.7 13.4 5.7 20.7-7.8 14.4-421.2 487.1-547.7 631.6-2.8 3.3-7 5.1-11.2 5.1z" fill="#d81e06" p-id="1455"></path>
    <path d="M436.9 959c-53.2 0-106.3-8.9-156.6-26.7l-19-6.7c-11.7-4.1-17.8-16.9-13.6-28.6 4.1-11.7 16.9-17.8 28.6-13.6l19 6.7c85.9 30.4 181.1 32.2 268.1 5l38.5-12c11.8-3.7 24.3 2.9 28 14.7 3.7 11.8-2.9 24.3-14.7 28l-38.5 12c-45.3 14.1-92.5 21.2-139.8 21.2z" fill="#d81e06" p-id="1456"></path>
    <path d="M270.1 927l-31.4-288.8s66.1 62.9 120.2 70.6c54.1 7.6 108.3 5.6 108.3 5.6L270.1 927zM312.2 576c-3.2 0-6.5-1.1-9.1-3.1L228 515c-3.2-2.4-5.2-6-5.7-10l-23.8-196.2c-0.7-5.7 2-11.3 6.8-14.4 4.9-3.1 11.1-3.1 16 0l133.8 84.8c5.2 3.3 7.9 9.5 6.6 15.6l-35 169.3c-1 5-4.6 9.2-9.4 11-1.6 0.6-3.4 0.9-5.1 0.9z m-61.1-80.8l51.2 39.5 28.1-135.8-98.5-62.4 19.2 158.7zM645.4 510.7c-0.3 0-0.7 0-1-0.1-0.6-0.1-58.7-8.2-123.1-26.1-64.9-18-137.8-60.2-140.9-62-3.6-2.1-4.8-6.6-2.7-10.2 2.1-3.6 6.6-4.8 10.2-2.7 0.7 0.4 74.4 43 137.4 60.5 63.5 17.6 120.6 25.6 121.2 25.7 4.1 0.6 6.9 4.3 6.4 8.4-0.7 3.8-3.8 6.5-7.5 6.5zM412.3 543.9c-1 0-2.1-0.2-3.1-0.7-23.8-11-39.7-19.9-40.4-20.3-3.6-2-4.9-6.6-2.9-10.2 2-3.6 6.5-4.9 10.1-2.9 0.2 0.1 16.2 9 39.4 19.8 3.7 1.7 5.4 6.2 3.6 9.9-1.2 2.8-3.9 4.4-6.7 4.4zM539.6 577.4c-4 0-7.3-3.2-7.4-7.2-0.1-4.1 3.1-7.6 7.2-7.7 24.5-0.8 42.6-5.2 42.8-5.2 4-1 8 1.5 9 5.5s-1.5 8-5.5 9c-0.8 0.2-19.7 4.8-45.9 5.7 0-0.1-0.1-0.1-0.2-0.1z" fill="#d81e06" p-id="1457"></path>
</svg>